# xmcd
#
# Track frame offsets: 
#        150
#        42361
#        74193
#        124511
#        155466
#        191818
#        225877
#
# Disc length: 3673 seconds
#
# Revision: 0
# Processed by: cddbd v1.5.2PL0 Copyright (c) Steve Scherf et al.
# Submitted via: ExactAudioCopy v0.95b4
#
DISCID=5b0e5707
DTITLE=Various Artist - Walter Gibbons Jungle Music [CD1]
DYEAR=2010
DGENRE=Disco
TTITLE0=Jakki - Sun... Sun... Sun... (Walter Gibbons Original 12-inch 
TTITLE0=Edit)
TTITLE1=Double Exposure - Ten Percent (Walter Gibbons 12-inch Mix)
TTITLE2=TC James and the Fist O'Funk Orchestra - Get Up On Your Feet (Ke
TTITLE2=ep On Dancin')(Walter Gibbons Mix)
TTITLE3=Gladys Knight - It's a Better Than Good Time (Walter Gibbons 1
TTITLE3=2-inch Mix)
TTITLE4=Salsoul Orchestra - Magic Bird of Fire (Fire Bird Suite)
TTITLE5=Sandy Mercer - Your Are My Love (12-inch Version)
TTITLE6=Bettye Lavette - Doin' the Best That I Can (Walter Gibbons 12-
TTITLE6=inch Mix)
EXTD=
EXTT0=
EXTT1=
EXTT2=
EXTT3=
EXTT4=
EXTT5=
EXTT6=
PLAYORDER=
